<svg xmlns="http://www.w3.org/2000/svg" width="20" height="20" fill="none" viewBox="0 0 20 20">
    <path fill="#D43737" fill-rule="evenodd" d="M7.5 4.167h5v-.834c0-.46-.373-.833-.833-.833H8.334c-.46 0-.834.373-.834.833v.834zm6.667 0v-.834c0-1.38-1.12-2.5-2.5-2.5H8.334c-1.381 0-2.5 1.12-2.5 2.5v.834H2.5c-.46 0-.833.373-.833.833 0 .46.373.833.833.833h.834v10.834c0 1.38 1.119 2.5 2.5 2.5h8.333c1.38 0 2.5-1.12 2.5-2.5V5.833h.833c.46 0 .834-.373.834-.833 0-.46-.373-.833-.834-.833h-3.333zm-.833 1.666H5v10.834c0 .46.373.833.834.833h8.333c.46 0 .833-.373.833-.833V5.833h-1.666zM7.5 9.167c0-.46.373-.834.834-.834.46 0 .833.373.833.834v5c0 .46-.373.833-.833.833-.46 0-.834-.373-.834-.833v-5zm4.167-.834c-.46 0-.833.373-.833.834v5c0 .46.373.833.833.833.46 0 .833-.373.833-.833v-5c0-.46-.373-.834-.833-.834z" clip-rule="evenodd"/>
</svg>
