<svg xmlns="http://www.w3.org/2000/svg" width="24" height="25" fill="none" viewBox="0 0 24 25">
    <path fill="#273F3F" fill-rule="evenodd" d="M19 2.5H5c-1.657 0-3 1.344-3 3v14c0 1.658 1.343 3 3 3h14c1.657 0 3-1.342 3-3v-14c0-1.656-1.343-3-3-3zm-15 17v-.585l3.548-3.548c.337-.337.865-.389 1.262-.125l1.635 1.09c.397.265.925.213 1.262-.124l3.586-3.586c.39-.39 1.024-.39 1.414 0L20 15.915v3.586c0 .552-.448 1-1 1H5c-.552 0-1-.448-1-1zm14.121-8.292L20 13.087V5.5c0-.552-.448-1-1-1H5c-.552 0-1 .448-1 1v10.586l2.134-2.134c1.01-1.011 2.595-1.168 3.785-.375l.954.636 3.006-3.006c1.171-1.172 3.07-1.172 4.242 0zM9 8.001c0 .828-.672 1.5-1.5 1.5S6 8.829 6 8c0-.829.672-1.5 1.5-1.5S9 7.172 9 8z" clip-rule="evenodd"/>
</svg>
