<svg xmlns="http://www.w3.org/2000/svg" width="24" height="25" fill="none" viewBox="0 0 24 25">
    <path fill="#273F3F" fill-rule="evenodd" d="M9.432 3.847l.003-.005C9.979 2.946 10.95 2.398 12 2.398c1.048 0 2.02.548 2.568 1.449l8.478 14.154c.533.923.536 2.06.008 2.986-.528.926-1.507 1.502-2.584 1.514H3.519c-1.066-.012-2.046-.588-2.574-1.514-.527-.926-.524-2.063.017-3l8.47-14.14zM12 18.501c.552 0 1-.448 1-1s-.448-1-1-1c-.553 0-1 .448-1 1s.447 1 1 1zm0-10c-.553 0-1 .448-1 1v4c0 .552.447 1 1 1 .552 0 1-.448 1-1v-4c0-.552-.448-1-1-1z" clip-rule="evenodd"/>
</svg>
