<svg xmlns="http://www.w3.org/2000/svg" width="24" height="25" fill="none" viewBox="0 0 24 25">
    <path fill="#273F3F" fill-rule="evenodd" d="M4 11.5v-2c0-4.417 3.582-8 8-8s8 3.583 8 8v2c0 .886.454 1.931 1.41 3.128 1.035 1.294.825 3.182-.47 4.216-.531.425-1.192.657-1.873.657h-2.144c-.39 2.435-2.229 4-4.923 4s-4.533-1.565-4.923-4H4.933c-1.657 0-3-1.343-3-3 0-.68.231-1.342.656-1.873C3.546 13.43 4 12.386 4 11.5zm3.995 6H19.067c.227 0 .447-.076.625-.218.431-.345.501-.974.156-1.405C18.632 14.354 18 12.9 18 11.5v-2c0-3.314-2.686-6-6-6s-6 2.686-6 6v2c0 1.399-.632 2.854-1.848 4.376-.142.177-.22.397-.22.624 0 .552.448 1 1 1h3.063zm1.12 2c.324 1.284 1.322 2 2.885 2 1.563 0 2.56-.716 2.885-2h-5.77z" clip-rule="evenodd"/>
</svg>
