<svg xmlns="http://www.w3.org/2000/svg" width="24" height="25" fill="none" viewBox="0 0 24 25">
    <path fill="#273F3F" fill-rule="evenodd" d="M7 5.5v-1c0-1.656 1.343-3 3-3h4c1.657 0 3 1.344 3 3v1h4c.552 0 1 .449 1 1 0 .553-.448 1-1 1h-1v13c0 1.658-1.343 3-3 3H7c-1.657 0-3-1.342-3-3v-13H3c-.552 0-1-.447-1-1 0-.551.448-1 1-1h4zm8 0v-1c0-.551-.448-1-1-1h-4c-.552 0-1 .449-1 1v1h6zm-5 5c-.552 0-1 .449-1 1v6c0 .553.448 1 1 1s1-.447 1-1v-6c0-.551-.448-1-1-1zm4 0c-.552 0-1 .449-1 1v6c0 .553.448 1 1 1s1-.447 1-1v-6c0-.551-.448-1-1-1z" clip-rule="evenodd"/>
</svg>
