<svg xmlns="http://www.w3.org/2000/svg" width="24" height="24" fill="none" viewBox="0 0 24 24">
    <path fill="#273F3F" fill-rule="evenodd" d="M9 5h6V4c0-.552-.448-1-1-1h-4c-.552 0-1 .448-1 1v1zm8 0V4c0-1.657-1.343-3-3-3h-4C8.343 1 7 2.343 7 4v1H3c-.552 0-1 .448-1 1s.448 1 1 1h1v13c0 1.657 1.343 3 3 3h10c1.657 0 3-1.343 3-3V7h1c.552 0 1-.448 1-1s-.448-1-1-1h-4zm-1 2H6v13c0 .552.448 1 1 1h10c.552 0 1-.448 1-1V7h-2zm-7 4c0-.552.448-1 1-1s1 .448 1 1v6c0 .552-.448 1-1 1s-1-.448-1-1v-6zm5-1c-.552 0-1 .448-1 1v6c0 .552.448 1 1 1s1-.448 1-1v-6c0-.552-.448-1-1-1z" clip-rule="evenodd"/>
</svg>
