<svg xmlns="http://www.w3.org/2000/svg" width="24" height="24" fill="none" viewBox="0 0 24 24">
    <path fill="#273F3F" fill-rule="evenodd" d="M9.768 17.36l-4.47-5.364 4.412-5.36c.35-.427.29-1.057-.137-1.408s-1.057-.29-1.408.137l-4.937 6c-.305.37-.304.906.004 1.275l5 6c.353.424.984.482 1.408.128.425-.353.482-.984.128-1.408zm4.592 1.408c-.425-.353-.482-.984-.128-1.408l4.47-5.364-4.412-5.36c-.35-.427-.29-1.057.137-1.408s1.057-.29 1.408.137l4.937 6c.305.37.304.906-.004 1.275l-5 6c-.353.424-.984.482-1.408.128z" clip-rule="evenodd"/>
</svg>
