<svg xmlns="http://www.w3.org/2000/svg" width="24" height="25" fill="none" viewBox="0 0 24 25">
    <path fill="#273F3F" fill-rule="evenodd" d="M18.606 4.5c-.67 0-1.294-.333-1.665-.89l-1.109-1.664c-.185-.278-.498-.445-.832-.445H9c-.334 0-.647.167-.832.445L7.058 3.61c-.37.557-.995.89-1.664.89H3c-1.657 0-3 1.344-3 3v13c0 1.658 1.343 3 3 3h18c1.657 0 3-1.342 3-3v-13c0-1.656-1.343-3-3-3h-2.394zM12 19.5c-3.314 0-6-2.685-6-6 0-3.313 2.686-6 6-6s6 2.687 6 6c0 3.315-2.686 6-6 6zm0-2c2.21 0 4-1.79 4-4 0-2.208-1.79-4-4-4s-4 1.792-4 4c0 2.21 1.79 4 4 4z" clip-rule="evenodd"/>
</svg>
