<svg xmlns="http://www.w3.org/2000/svg" width="24" height="24" fill="none" viewBox="0 0 24 24">
    <path fill="#273F3F" fill-rule="evenodd" d="M6.141 2.607l-.16-.803v-.001C5.885 1.336 5.475 1 5 1H1c-.552 0-1 .448-1 1s.448 1 1 1h3.18l.68 3.393.152.762c.004.029.01.057.017.084L5.18 8 6.7 15.586c.283 1.424 1.547 2.442 3 2.414H19.4c1.434.028 2.698-.99 2.98-2.415l1.602-8.398C24.1 6.571 23.627 6 23 6H6.82l-.679-3.393zm2.52 12.587L7.22 8h14.57l-1.373 7.2c-.098.48-.524.81-.98.8H9.66c-.484.01-.905-.33-.999-.803v-.003zM9 24c-1.105 0-2-.895-2-2s.895-2 2-2 2 .895 2 2-.895 2-2 2zm11 0c-1.105 0-2-.895-2-2s.895-2 2-2 2 .895 2 2-.895 2-2 2z" clip-rule="evenodd"/>
</svg>
