<svg xmlns="http://www.w3.org/2000/svg" width="24" height="24" fill="none" viewBox="0 0 24 24">
    <path fill="#273F3F" fill-rule="evenodd" d="M9.801 12c-.442.33-.532.957-.202 1.399.87 1.162 2.2 1.889 3.647 1.992 1.447.104 2.868-.426 3.893-1.452l2.4-2.4c1.907-1.974 1.88-5.093-.049-7.021-1.928-1.929-5.047-1.956-7.009-.061l-1.386 1.378c-.392.39-.393 1.022-.004 1.414.39.392 1.023.394 1.414.004l1.376-1.368c1.167-1.127 3.038-1.11 4.195.047 1.157 1.157 1.174 3.028.037 4.205l-2.388 2.388c-.615.616-1.468.934-2.336.871-.868-.062-1.667-.498-2.188-1.195-.33-.442-.958-.533-1.4-.202zm4.398 0c.442-.33.533-.957.202-1.399-.869-1.162-2.2-1.889-3.647-1.992-1.447-.104-2.867.426-3.893 1.452l-2.4 2.4c-1.907 1.974-1.88 5.093.049 7.022 1.928 1.928 5.047 1.955 7.009.06l1.38-1.38c.39-.39.39-1.023 0-1.414-.39-.39-1.023-.39-1.414 0l-1.368 1.368c-1.165 1.125-3.036 1.108-4.193-.049-1.157-1.157-1.173-3.028-.037-4.205l2.388-2.388c.616-.616 1.468-.934 2.336-.871.869.062 1.667.498 2.188 1.195.331.442.958.533 1.4.202z" clip-rule="evenodd"/>
</svg>
