<svg xmlns="http://www.w3.org/2000/svg" width="24" height="24" fill="none" viewBox="0 0 24 24">
    <path fill="#273F3F" fill-rule="evenodd" d="M17.653 6.347l.73.653H15c-.552 0-1 .448-1 1s.448 1 1 1h6c.552 0 1-.448 1-1V2c0-.552-.448-1-1-1s-1 .448-1 1v3.765l-.974-.87c-2.386-2.39-5.89-3.404-9.238-2.646-3.35.758-6.075 3.18-7.22 6.417-.185.521.088 1.092.608 1.277.521.184 1.092-.089 1.277-.61.916-2.589 3.097-4.527 5.776-5.133 2.68-.607 5.482.204 7.424 2.147zM4 18.235V22c0 .552-.448 1-1 1s-1-.448-1-1v-6c0-.552.448-1 1-1h6c.552 0 1 .448 1 1s-.448 1-1 1H5.617l.73.653c1.942 1.943 4.745 2.754 7.424 2.147 2.68-.606 4.86-2.544 5.776-5.134.184-.52.756-.793 1.277-.609.52.184.793.756.609 1.277-1.146 3.236-3.872 5.66-7.22 6.417-3.35.758-6.853-.256-9.24-2.646L4 18.235z" clip-rule="evenodd"/>
</svg>
