<svg xmlns="http://www.w3.org/2000/svg" width="24" height="24" fill="none" viewBox="0 0 24 24">
    <path fill="#273F3F" fill-rule="evenodd" d="M12 23C5.925 23 1 18.075 1 12S5.925 1 12 1s11 4.925 11 11-4.925 11-11 11zm0-2c4.97 0 9-4.03 9-9s-4.03-9-9-9-9 4.03-9 9 4.03 9 9 9zm5.189-12.924l-2.12 6.36c-.1.299-.334.533-.633.633l-6.36 2.12c-.782.26-1.525-.483-1.265-1.265l2.12-6.36c.1-.299.334-.533.633-.633l6.36-2.12c.782-.26 1.525.483 1.265 1.265zm-6.518 2.595l-1.33 3.988 3.988-1.33 1.33-3.988-3.988 1.33z" clip-rule="evenodd"/>
</svg>
