<svg xmlns="http://www.w3.org/2000/svg" width="24" height="25" fill="none" viewBox="0 0 24 25">
    <path fill="#273F3F" fill-rule="evenodd" d="M.894 10.708c-.384.595-.648 1.065-.788 1.346-.141.281-.141.612 0 .894.14.281.404.75.788 1.345.636.985 1.387 1.97 2.251 2.892C5.661 19.868 8.62 21.5 12 21.5c3.38 0 6.339-1.633 8.855-4.316.864-.922 1.614-1.907 2.25-2.892.385-.595.649-1.064.79-1.345.14-.282.14-.613 0-.894-.141-.281-.405-.75-.79-1.346-.636-.985-1.386-1.97-2.25-2.891C18.339 5.133 15.38 3.5 12 3.5c-3.38 0-6.339 1.632-8.855 4.316-.864.922-1.615 1.906-2.25 2.891zM12 16.501c-2.21 0-4-1.791-4-4 0-2.21 1.79-4 4-4s4 1.79 4 4c0 2.209-1.79 4-4 4zm0-2c1.105 0 2-.896 2-2 0-1.105-.895-2-2-2s-2 .895-2 2c0 1.104.895 2 2 2z" clip-rule="evenodd"/>
</svg>
