<svg xmlns="http://www.w3.org/2000/svg" width="24" height="24" fill="none" viewBox="0 0 24 24">
    <path fill="#273F3F" fill-rule="evenodd" d="M.106 11.553c.14-.281.404-.75.788-1.346.636-.985 1.387-1.969 2.251-2.89C5.661 4.631 8.62 3 12 3c3.38 0 6.339 1.632 8.855 4.316.864.922 1.614 1.906 2.25 2.891.385.596.649 1.065.79 1.346.14.281.14.613 0 .894-.141.281-.405.75-.79 1.346-.636.985-1.386 1.969-2.25 2.89C18.339 19.368 15.38 21 12 21c-3.38 0-6.339-1.633-8.855-4.316-.864-.922-1.615-1.906-2.25-2.892-.385-.595-.649-1.064-.79-1.345-.14-.281-.14-.613 0-.894zm2.468 1.154c.575.89 1.254 1.781 2.03 2.61C6.777 17.632 9.255 19 12 19c2.745 0 5.224-1.367 7.395-3.684.777-.828 1.456-1.719 2.03-2.609.164-.252.308-.49.434-.707-.126-.218-.27-.455-.433-.707-.575-.89-1.254-1.781-2.03-2.61C17.223 6.369 14.745 5 12 5 9.255 5 6.776 6.368 4.605 8.684c-.777.828-1.456 1.719-2.03 2.609-.164.252-.308.49-.434.707.126.218.27.455.433.707zM12 16c-2.21 0-4-1.79-4-4s1.79-4 4-4 4 1.79 4 4-1.79 4-4 4zm0-2c1.105 0 2-.895 2-2s-.895-2-2-2-2 .895-2 2 .895 2 2 2z" clip-rule="evenodd"/>
</svg>
