<svg xmlns="http://www.w3.org/2000/svg" width="24" height="24" fill="none" viewBox="0 0 24 24">
    <path fill="#273F3F" fill-rule="evenodd" d="M5.75 5.999c0-.966.784-1.75 1.75-1.75s1.75.784 1.75 1.75c0 .967-.784 1.75-1.75 1.75s-1.75-.783-1.75-1.75zM4.407 7H3c-.552 0-1-.448-1-1s.448-1 1-1h1.406C4.828 3.694 6.054 2.749 7.5 2.749s2.672.945 3.094 2.251H21c.552 0 1 .448 1 1s-.448 1-1 1H10.593C10.17 8.305 8.946 9.249 7.5 9.249S4.83 8.305 4.407 7zm10.343 4.999c0-.966.784-1.75 1.75-1.75s1.75.784 1.75 1.75-.784 1.75-1.75 1.75-1.75-.784-1.75-1.75zM13.407 13H3c-.552 0-1-.448-1-1s.448-1 1-1h10.406c.422-1.306 1.648-2.251 3.094-2.251s2.672.945 3.094 2.251H21c.552 0 1 .448 1 1s-.448 1-1 1h-1.407c-.422 1.305-1.647 2.249-3.093 2.249s-2.67-.944-3.093-2.249zM7.5 16.249c-.966 0-1.75.784-1.75 1.75s.784 1.75 1.75 1.75 1.75-.784 1.75-1.75-.784-1.75-1.75-1.75zM3 19h1.407c.422 1.305 1.647 2.249 3.093 2.249s2.67-.944 3.093-2.249H21c.552 0 1-.448 1-1s-.448-1-1-1H10.594c-.422-1.306-1.648-2.251-3.094-2.251S4.828 15.694 4.406 17H3c-.552 0-1 .448-1 1s.448 1 1 1z" clip-rule="evenodd"/>
</svg>
