<svg xmlns="http://www.w3.org/2000/svg" width="24" height="24" fill="none" viewBox="0 0 24 24">
    <path fill="#273F3F" fill-rule="evenodd" d="M8.757 2.77c-.553 0-1 .447-1 1 0 .552.447 1 1 1h.233v5.184l-5.66 8.47-.017.03c-.436.765-.381 1.633-.052 2.295C3.587 21.404 4.264 22 5.183 22h13.62c.942 0 1.641-.569 1.97-1.273.32-.687.316-1.542-.1-2.273l-.018-.03-5.66-8.47V4.769h.26c.552 0 1-.447 1-1 0-.552-.448-1-1-1h-1.26c-.552 0-1 .448-1 1v6.488c0 .198.059.391.169.556l5.783 8.654c.072.143.065.302.013.415-.026.055-.056.084-.075.097-.014.01-.036.021-.083.021H5.182s-.009 0-.03-.014c-.026-.019-.066-.059-.1-.127-.067-.135-.067-.282-.013-.394l5.782-8.652c.11-.165.169-.358.169-.556V3.769c0-.552-.448-1-1-1H8.757zm1.856 13.179c.49 0 .889-.367.889-.82 0-.454-.398-.821-.89-.821-.49 0-.888.367-.888.82 0 .454.398.821.889.821zM9.03 18.511c.49 0 .889-.367.889-.82 0-.454-.398-.821-.89-.821-.49 0-.888.367-.888.82 0 .454.398.821.889.821zm2.971 0c.491 0 .89-.367.89-.82 0-.454-.399-.821-.89-.821-.49 0-.889.367-.889.82 0 .454.398.821.89.821zm3.86-.82c0 .453-.398.82-.889.82-.49 0-.889-.367-.889-.82 0-.454.398-.821.89-.821.49 0 .888.367.888.82zm-1.388-2.563c0 .454-.398.821-.889.821-.49 0-.889-.367-.889-.82 0-.454.398-.821.89-.821.49 0 .888.367.888.82z" clip-rule="evenodd"/>
</svg>
