<svg xmlns="http://www.w3.org/2000/svg" width="24" height="25" fill="none" viewBox="0 0 24 25">
    <path fill="#273F3F" fill-rule="evenodd" d="M3.632 19.453c.713 1.495 2.503 2.13 3.999 1.416l1.125-.536.416 1.175c.302.853.973 1.524 1.826 1.826 1.562.553 3.277-.265 3.83-1.826l.416-1.175 1.125.536c.817.39 1.766.39 2.583 0 1.495-.713 2.13-2.503 1.416-3.999l-.536-1.125 1.175-.416c.853-.302 1.524-.974 1.826-1.826.553-1.562-.264-3.277-1.826-3.83l-1.175-.416.536-1.125c.39-.817.39-1.766 0-2.583-.713-1.495-2.503-2.13-3.999-1.416l-1.125.536-.416-1.175c-.302-.853-.973-1.524-1.826-1.826-1.562-.553-3.277.264-3.83 1.826L8.756 4.67l-1.125-.536c-.817-.39-1.766-.39-2.583 0-1.495.713-2.13 2.503-1.416 3.999l.536 1.125-1.175.416c-.853.302-1.524.973-1.826 1.826-.553 1.562.264 3.276 1.826 3.83l1.175.416-.536 1.125c-.39.817-.39 1.766 0 2.583zM15 12.5c0 1.657-1.343 3-3 3s-3-1.343-3-3 1.343-3 3-3 3 1.343 3 3z" clip-rule="evenodd"/>
</svg>
