<svg xmlns="http://www.w3.org/2000/svg" width="24" height="24" fill="none" viewBox="0 0 24 24">
    <path fill="#273F3F" fill-rule="evenodd" d="M7.63 20.368c-1.495.713-3.285.08-3.998-1.416-.39-.817-.39-1.766 0-2.583l.536-1.125-1.175-.416c-1.561-.553-2.38-2.268-1.826-3.83.302-.853.973-1.524 1.826-1.826l1.175-.416-.536-1.125c-.713-1.496-.08-3.286 1.416-4 .817-.389 1.766-.389 2.583 0l1.125.537.416-1.175c.553-1.561 2.268-2.38 3.83-1.826.853.302 1.524.973 1.826 1.826l.416 1.175 1.125-.536c1.496-.713 3.286-.08 4 1.416.389.817.389 1.766 0 2.583l-.537 1.125 1.175.416c1.562.553 2.38 2.268 1.826 3.83-.302.853-.973 1.524-1.826 1.826l-1.175.416.536 1.125c.713 1.496.08 3.286-1.416 4-.817.389-1.766.389-2.583 0l-1.125-.537-.416 1.175c-.553 1.562-2.268 2.38-3.83 1.826-.853-.302-1.524-.973-1.826-1.826l-.416-1.175-1.125.536zm1.267-2.82c.032-.014.064-.028.097-.04.52-.184 1.092.089 1.277.61l.786 2.221c.101.284.325.508.61.609.52.184 1.091-.088 1.276-.609l.787-2.222c.011-.033.025-.065.04-.096.237-.499.834-.71 1.333-.472l2.127 1.014c.272.13.589.13.86 0 .5-.238.71-.834.473-1.333l-1.014-2.127c-.015-.032-.029-.064-.04-.097-.185-.52.088-1.092.608-1.276l2.222-.787c.284-.101.508-.325.609-.61.184-.52-.088-1.091-.609-1.276l-2.222-.787c-.033-.011-.065-.024-.096-.04-.499-.237-.71-.834-.472-1.333l1.014-2.127c.13-.272.13-.589 0-.86-.238-.5-.834-.71-1.333-.473l-2.127 1.014c-.032.015-.064.029-.097.04-.52.185-1.092-.088-1.276-.608l-.787-2.222c-.101-.284-.325-.508-.61-.609-.52-.184-1.091.088-1.276.61l-.787 2.22c-.011.034-.024.066-.04.097-.237.499-.834.71-1.333.472L6.77 5.437c-.272-.13-.589-.13-.86 0-.5.238-.71.835-.473 1.333l1.014 2.127c.015.032.029.064.04.097.185.52-.088 1.092-.608 1.277l-2.222.786c-.284.101-.508.325-.609.61-.184.52.088 1.091.61 1.276l2.22.787c.034.011.066.025.097.04.499.237.71.834.472 1.333L5.437 17.23c-.13.272-.13.589 0 .86.238.5.835.71 1.333.473l2.127-1.014zM12 16c-2.21 0-4-1.79-4-4s1.79-4 4-4 4 1.79 4 4-1.79 4-4 4zm0-2c1.105 0 2-.895 2-2 0-1.104-.895-2-2-2-1.104 0-2 .896-2 2 0 1.105.896 2 2 2z" clip-rule="evenodd"/>
</svg>
