<svg xmlns="http://www.w3.org/2000/svg" width="24" height="24" fill="none" viewBox="0 0 24 24">
    <path fill="#273F3F" fill-rule="evenodd" d="M21.547 13.097c1.22-1.219 1.905-2.873 1.905-4.597 0-1.724-.685-3.378-1.905-4.597-1.219-1.22-2.873-1.905-4.597-1.905-1.724 0-3.378.685-4.597 1.905L12 4.256l-.353-.353c-2.539-2.539-6.655-2.539-9.194 0-2.539 2.539-2.539 6.655 0 9.194l8.84 8.84c.39.39 1.024.39 1.414 0l8.84-8.84zm-1.414-1.414l-1.06 1.06L12 19.816l-8.133-8.133c-1.758-1.758-1.758-4.608 0-6.366s4.608-1.758 6.366 0l1.06 1.06c.39.39 1.024.39 1.414 0l1.06-1.06c.844-.844 1.99-1.319 3.183-1.319 1.194 0 2.339.475 3.183 1.32.845.843 1.319 1.988 1.319 3.182s-.475 2.339-1.319 3.183z" clip-rule="evenodd"/>
</svg>
