<svg width="40" height="18" viewBox="0 0 40 18" fill="none" xmlns="http://www.w3.org/2000/svg">
<path d="M10.1558 12.2835C10.8587 12.2835 11.3952 12.1262 11.7744 11.8025C12.1444 11.4788 12.3387 11.0255 12.3387 10.4428C12.3387 10.0913 12.2369 9.7861 12.0519 9.52711C11.8577 9.26813 11.5987 9.07389 11.275 8.96289C11.5709 8.84265 11.8022 8.65766 11.9687 8.39867C12.1352 8.14893 12.2277 7.85295 12.2277 7.50147C12.2277 6.96499 12.0427 6.53952 11.6819 6.20653C11.312 5.8828 10.7755 5.71631 10.054 5.71631H7.39941V12.2835H10.1558ZM10.1465 9.47162C10.4795 9.47162 10.7477 9.55486 10.9327 9.7121C11.1177 9.86935 11.2102 10.0913 11.2102 10.3688C11.2102 10.97 10.8495 11.266 10.1373 11.266H8.50011V9.47162H10.1465ZM10.0633 6.73376C10.4055 6.73376 10.6645 6.817 10.8402 6.96499C11.0067 7.11299 11.0992 7.32573 11.0992 7.59396C11.0992 8.16743 10.7477 8.44492 10.0633 8.44492H8.50011V6.73376H10.0633Z" fill="#17C67E"/>
<path d="M19.1183 11.2475H15.622V9.47162H18.961V8.43567H15.622V6.75226H19.1183V5.71631H14.5028V12.2835H19.1183V11.2475Z" fill="#17C67E"/>
<path d="M25.5166 5.71631H20.5866V6.78H22.492V12.2835H23.6112V6.78H25.5166V5.71631Z" fill="#17C67E"/>
<path d="M27.075 12.2835L27.5468 11.0163H30.4881L30.9598 12.2835H32.1808L29.6279 5.71631H28.4347L25.8911 12.2835H27.075ZM29.0267 7.10374L30.1181 9.99884H27.9167L29.0082 7.10374H29.0267Z" fill="#17C67E"/>
<path d="M9 0.924952H31V-0.924952H9V0.924952ZM31 17.075H9V18.925H31V17.075ZM9 17.075C4.54028 17.075 0.924952 13.4597 0.924952 9H-0.924952C-0.924952 14.4814 3.5186 18.925 9 18.925V17.075ZM39.075 9C39.075 13.4597 35.4597 17.075 31 17.075V18.925C36.4814 18.925 40.925 14.4814 40.925 9H39.075ZM31 0.924952C35.4597 0.924952 39.075 4.54027 39.075 9H40.925C40.925 3.5186 36.4814 -0.924952 31 -0.924952V0.924952ZM9 -0.924952C3.5186 -0.924952 -0.924952 3.5186 -0.924952 9H0.924952C0.924952 4.54027 4.54027 0.924952 9 0.924952V-0.924952Z" fill="#17C67E"/>
</svg>
