<svg xmlns="http://www.w3.org/2000/svg" width="24" height="24" fill="none" viewBox="0 0 24 24">
    <path fill="#273F3F" fill-rule="evenodd" d="M11.997 2.006c-2.715 0-3.056.012-4.122.06-1.064.049-1.79.218-2.426.465-.658.256-1.215.597-1.771 1.153-.556.556-.898 1.114-1.153 1.77-.247.637-.416 1.363-.465 2.428C2.012 8.948 2 9.288 2 12.003c0 2.715.012 3.056.06 4.122.049 1.064.218 1.79.465 2.427.255.657.597 1.214 1.153 1.77s1.113.898 1.77 1.153c.636.247 1.363.416 2.427.465 1.066.048 1.407.06 4.122.06s3.055-.012 4.122-.06c1.064-.049 1.79-.218 2.426-.465.657-.255 1.215-.597 1.77-1.153.557-.556.898-1.113 1.154-1.77.247-.636.416-1.363.464-2.427.05-1.066.06-1.407.06-4.122s-.01-3.055-.06-4.121c-.048-1.065-.217-1.791-.464-2.427-.256-.657-.597-1.215-1.153-1.77-.556-.557-1.113-.898-1.77-1.154-.637-.247-1.363-.416-2.427-.464-1.067-.05-1.407-.06-4.122-.06zm0 1.802c2.67 0 2.985.01 4.04.058.974.044 1.503.207 1.856.344.466.181.8.398 1.15.748.349.35.566.683.747 1.15.137.352.3.88.344 1.856.048 1.054.058 1.37.058 4.04 0 2.668-.01 2.985-.058 4.039-.044.974-.207 1.504-.344 1.856-.181.467-.398.8-.748 1.15-.35.35-.683.566-1.15.747-.352.137-.88.3-1.856.345-1.054.048-1.37.058-4.04.058-2.669 0-2.985-.01-4.039-.059-.974-.044-1.504-.207-1.856-.344-.467-.181-.8-.398-1.15-.747-.35-.35-.566-.683-.747-1.15-.137-.352-.3-.882-.344-1.856-.049-1.054-.059-1.37-.059-4.04s.01-2.985.059-4.04c.044-.974.207-1.503.344-1.856.181-.466.398-.8.748-1.15.35-.349.682-.566 1.149-.747.352-.137.882-.3 1.856-.344 1.054-.048 1.37-.058 4.04-.058zM12 15.246c-1.793 0-3.246-1.453-3.246-3.246S10.208 8.754 12 8.754c1.793 0 3.246 1.454 3.246 3.246 0 1.793-1.454 3.246-3.246 3.246zM12 7c-2.761 0-5 2.239-5 5s2.239 5 5 5 5-2.239 5-5-2.239-5-5-5zm5.333.866c.663 0 1.2-.537 1.2-1.2 0-.662-.537-1.199-1.2-1.199-.662 0-1.2.537-1.2 1.2 0 .662.538 1.2 1.2 1.2z" clip-rule="evenodd"/>
</svg>
