<svg width="164" height="25" viewBox="0 0 164 25" fill="none" xmlns="http://www.w3.org/2000/svg">
<path d="M15.2373 14.9324C15.2373 17.7912 12.8735 20.1205 9.90982 20.1205C7.05201 20.1205 4.72343 17.8264 4.72343 15.0029C4.72343 12.144 7.08732 9.84992 9.9804 9.84992C12.8735 9.84992 15.2373 12.1087 15.2373 14.9324V14.9324ZM19.2242 9.92048H21.4823V6.17947H15.2021V8.68525C13.7555 6.74414 12.0268 5.89702 9.62756 5.89702C4.72343 5.89702 0.666016 10.0617 0.666016 15.0735C0.666016 20.0146 4.65285 24.0382 9.48646 24.0382C11.9561 24.0382 13.7202 23.2617 15.2021 21.4264V23.7558H21.4823V20.0146H19.2242V9.92048ZM40.04 14.8617C40.04 17.8617 37.6762 20.3323 34.7477 20.3323C31.8194 20.3323 29.3849 17.8264 29.3849 14.8617C29.3849 11.9676 31.7488 9.63826 34.7124 9.63826C37.6762 9.63826 40.04 11.9676 40.04 14.8617V14.8617ZM29.5966 0.249999H23.3169V3.99112H25.5749V20.0146H23.3169V23.7558H29.5966V21.1441C31.1843 23.1911 32.9485 24.0382 35.418 24.0382C40.1459 24.0382 44.0974 19.9441 44.0974 15.0029C44.0974 10.0265 40.0047 5.89702 35.0653 5.89702C32.7014 5.89702 31.0079 6.77936 29.5966 8.72059V0.249999ZM62.5376 6.17947H59.0802V7.90881C57.5987 6.39113 56.0463 5.72058 54.0704 5.68524C49.2369 5.68524 45.1795 9.95581 45.1795 14.9676C45.1795 20.0852 49.3427 24.25 54.4233 24.25C58.445 24.25 61.9026 21.744 63.2081 17.8617H58.7273C57.9162 19.4146 56.3991 20.3323 54.4939 20.3323C51.5655 20.3323 49.2369 17.9675 49.2369 15.0029C49.2369 12.0382 51.5302 9.63826 54.388 9.63826C56.1522 9.63826 57.634 10.4499 58.7978 12.0382H62.5376V6.17947ZM78.6967 14.9324C78.6967 17.7912 76.3328 20.1205 73.3692 20.1205C70.5113 20.1205 68.1828 17.8264 68.1828 15.0029C68.1828 12.144 70.5467 9.84992 73.4398 9.84992C76.3328 9.84992 78.6967 12.1087 78.6967 14.9324V14.9324ZM82.6836 9.92048H84.9417V6.17947H78.6614V8.68525C77.2149 6.74414 75.4861 5.89702 73.087 5.89702C68.1828 5.89702 64.1254 10.0617 64.1254 15.0735C64.1254 20.0146 68.1123 24.0382 72.9458 24.0382C75.4155 24.0382 77.1796 23.2617 78.6614 21.4264V23.7558H84.9417V20.0146H82.6836V9.92048ZM92.8443 6.17947H86.9522V9.92048H89.2103V20.0146H86.9522V23.7558H95.5257V20.0146H93.2324V14.2971C93.2324 11.5794 94.679 9.84992 96.9369 9.84992C99.3009 9.84992 100.395 11.2617 100.43 14.3676V20.0146H98.1719V23.7558H106.71V20.0146H104.381V14.0853C104.381 11.4735 105.863 9.84992 108.227 9.84992C110.52 9.84992 111.72 11.297 111.72 14.0853V20.0146H109.462V23.7558H118V20.0146H115.742V13.0971C115.742 11.2264 115.495 10.1324 114.895 9.03826C113.802 7.13236 111.579 5.89702 109.25 5.89702C106.639 5.89702 104.558 7.20291 103.393 9.60292C102.159 7.13236 100.324 5.89702 97.9248 5.89702C95.8081 5.89702 94.1144 6.92058 92.8443 8.93225V6.17947" fill="white"/>
<path d="M134.156 18.2419C134.859 18.2419 135.395 18.0846 135.774 17.7609C136.144 17.4372 136.339 16.9839 136.339 16.4012C136.339 16.0497 136.237 15.7445 136.052 15.4855C135.858 15.2265 135.599 15.0323 135.275 14.9213C135.571 14.8011 135.802 14.6161 135.969 14.3571C136.135 14.1073 136.228 13.8114 136.228 13.4599C136.228 12.9234 136.043 12.4979 135.682 12.1649C135.312 11.8412 134.775 11.6747 134.054 11.6747H131.399V18.2419H134.156ZM134.147 15.43C134.48 15.43 134.748 15.5133 134.933 15.6705C135.118 15.8277 135.21 16.0497 135.21 16.3272C135.21 16.9284 134.849 17.2244 134.137 17.2244H132.5V15.43H134.147ZM134.063 12.6922C134.406 12.6922 134.664 12.7754 134.84 12.9234C135.007 13.0714 135.099 13.2841 135.099 13.5524C135.099 14.1258 134.748 14.4033 134.063 14.4033H132.5V12.6922H134.063Z" fill="#17C67E"/>
<path d="M143.118 17.2059H139.622V15.43H142.961V14.3941H139.622V12.7107H143.118V11.6747H138.503V18.2419H143.118V17.2059Z" fill="#17C67E"/>
<path d="M149.517 11.6747H144.587V12.7384H146.492V18.2419H147.611V12.7384H149.517V11.6747Z" fill="#17C67E"/>
<path d="M151.075 18.2419L151.547 16.9747H154.488L154.96 18.2419H156.181L153.628 11.6747H152.435L149.891 18.2419H151.075ZM153.027 13.0621L154.118 15.9572H151.917L153.008 13.0621H153.027Z" fill="#17C67E"/>
<path d="M132.833 7.04995H154.747V5.20005H132.833V7.04995ZM154.747 22.8666H132.833V24.7165H154.747V22.8666ZM132.833 22.8666C128.466 22.8666 124.925 19.326 124.925 14.9583H123.075C123.075 20.3476 127.444 24.7165 132.833 24.7165V22.8666ZM162.656 14.9583C162.656 19.326 159.115 22.8666 154.747 22.8666V24.7165C160.137 24.7165 164.506 20.3476 164.506 14.9583H162.656ZM154.747 7.04995C159.115 7.04995 162.656 10.5906 162.656 14.9583H164.506C164.506 9.56896 160.137 5.20005 154.747 5.20005V7.04995ZM132.833 5.20005C127.444 5.20005 123.075 9.56896 123.075 14.9583H124.925C124.925 10.5906 128.466 7.04995 132.833 7.04995V5.20005Z" fill="#17C67E"/>
</svg>
