<svg xmlns="http://www.w3.org/2000/svg" viewBox="0 0 1040 210">
  <path d="M817.029,52.624H764.8v33.2h20.015V175.41H764.8v33.2H840.8v-33.2H820.469V124.667c0-24.119,12.821-39.467,32.836-39.467,20.952,0,30.646,12.529,30.959,40.093V175.41H864.25v33.2h75.679v-33.2h-20.64V122.788c0-23.179,13.134-37.588,34.087-37.588,20.327,0,30.959,12.843,30.959,37.588V175.41H964.321v33.2H1040v-33.2h-20.01V114.017c0-16.6-2.19-26.311-7.51-36.021-9.69-16.914-29.4-27.877-50.035-27.877-23.142,0-41.592,11.59-51.912,32.889-10.945-21.926-27.207-32.889-48.472-32.889-18.763,0-33.774,9.084-45.032,26.938V52.624Zm-90.06,33.2h20.014v-33.2H691.318V74.863c-12.821-17.228-28.145-24.745-49.41-24.745-43.468,0-79.431,36.961-79.431,81.44,0,43.852,35.337,79.56,78.18,79.56,21.891,0,37.527-6.891,50.661-23.179v20.674h55.665v-33.2H726.969V85.826Zm-35.338,44.479c0,25.372-20.952,46.045-47.221,46.045-25.33,0-45.97-20.36-45.97-45.418,0-25.372,20.952-45.732,46.595-45.732s46.6,20.047,46.6,45.105M548.4,52.624H517.757V67.972c-13.13-13.469-26.89-19.42-44.4-19.733-42.843,0-78.806,37.9-78.806,82.379,0,45.419,36.9,82.38,81.933,82.38,35.647,0,66.293-22.24,77.864-56.695H514.63c-7.189,13.782-20.636,21.926-37.523,21.926-25.956,0-46.6-20.986-46.6-47.3s20.327-47.611,45.657-47.611c15.636,0,28.771,7.2,39.087,21.3H548.4v-52ZM256.429,0H200.768V33.2h20.014V175.41H200.768v33.2h55.661v-23.18c14.072,18.168,29.708,25.685,51.6,25.685,41.9,0,76.929-36.334,76.929-80.186,0-44.166-36.275-80.814-80.056-80.814-20.953,0-35.963,7.831-48.472,25.058V0Zm92.565,129.678c0,26.624-20.952,48.55-46.908,48.55s-47.534-22.239-47.534-48.55c0-25.685,20.953-46.358,47.221-46.358s47.221,20.673,47.221,46.358m-184.5-43.853h20.014v-33.2H128.842V74.863C116.02,57.636,100.7,50.118,79.432,50.118,35.963,50.118,0,87.079,0,131.558c0,43.852,35.338,79.56,78.18,79.56,21.89,0,37.526-6.891,50.661-23.179v20.674h55.664v-33.2H164.492V85.826Zm-35.338,44.479c0,25.372-20.952,46.045-47.221,46.045-25.331,0-45.97-20.36-45.97-45.418,0-25.372,20.952-45.732,46.6-45.732s46.6,20.047,46.6,45.105"/>
</svg>