<svg width="164" height="25" viewBox="0 0 164 25" fill="none" xmlns="http://www.w3.org/2000/svg">
<path d="M15.2373 15.4324C15.2373 18.2912 12.8735 20.6205 9.90982 20.6205C7.05201 20.6205 4.72343 18.3264 4.72343 15.5029C4.72343 12.644 7.08732 10.3499 9.9804 10.3499C12.8735 10.3499 15.2373 12.6087 15.2373 15.4324V15.4324ZM19.2242 10.4205H21.4823V6.67947H15.2021V9.18525C13.7555 7.24414 12.0268 6.39702 9.62756 6.39702C4.72343 6.39702 0.666016 10.5617 0.666016 15.5735C0.666016 20.5146 4.65285 24.5382 9.48646 24.5382C11.9561 24.5382 13.7202 23.7617 15.2021 21.9264V24.2558H21.4823V20.5146H19.2242V10.4205ZM40.04 15.3617C40.04 18.3617 37.6762 20.8323 34.7477 20.8323C31.8194 20.8323 29.3849 18.3264 29.3849 15.3617C29.3849 12.4676 31.7488 10.1383 34.7124 10.1383C37.6762 10.1383 40.04 12.4676 40.04 15.3617V15.3617ZM29.5966 0.749999H23.3169V4.49112H25.5749V20.5146H23.3169V24.2558H29.5966V21.6441C31.1843 23.6911 32.9485 24.5382 35.418 24.5382C40.1459 24.5382 44.0974 20.4441 44.0974 15.5029C44.0974 10.5265 40.0047 6.39702 35.0653 6.39702C32.7014 6.39702 31.0079 7.27936 29.5966 9.22059V0.749999ZM62.5376 6.67947H59.0802V8.40881C57.5987 6.89113 56.0463 6.22058 54.0704 6.18524C49.2369 6.18524 45.1795 10.4558 45.1795 15.4676C45.1795 20.5852 49.3427 24.75 54.4233 24.75C58.445 24.75 61.9026 22.244 63.2081 18.3617H58.7273C57.9162 19.9146 56.3991 20.8323 54.4939 20.8323C51.5655 20.8323 49.2369 18.4675 49.2369 15.5029C49.2369 12.5382 51.5302 10.1383 54.388 10.1383C56.1522 10.1383 57.634 10.9499 58.7978 12.5382H62.5376V6.67947ZM78.6967 15.4324C78.6967 18.2912 76.3328 20.6205 73.3692 20.6205C70.5113 20.6205 68.1828 18.3264 68.1828 15.5029C68.1828 12.644 70.5467 10.3499 73.4398 10.3499C76.3328 10.3499 78.6967 12.6087 78.6967 15.4324V15.4324ZM82.6836 10.4205H84.9417V6.67947H78.6614V9.18525C77.2149 7.24414 75.4861 6.39702 73.087 6.39702C68.1828 6.39702 64.1254 10.5617 64.1254 15.5735C64.1254 20.5146 68.1123 24.5382 72.9458 24.5382C75.4155 24.5382 77.1796 23.7617 78.6614 21.9264V24.2558H84.9417V20.5146H82.6836V10.4205ZM92.8443 6.67947H86.9522V10.4205H89.2103V20.5146H86.9522V24.2558H95.5257V20.5146H93.2324V14.7971C93.2324 12.0794 94.679 10.3499 96.9369 10.3499C99.3009 10.3499 100.395 11.7617 100.43 14.8676V20.5146H98.1719V24.2558H106.71V20.5146H104.381V14.5853C104.381 11.9735 105.863 10.3499 108.227 10.3499C110.52 10.3499 111.72 11.797 111.72 14.5853V20.5146H109.462V24.2558H118V20.5146H115.742V13.5971C115.742 11.7264 115.495 10.6324 114.895 9.53826C113.802 7.63236 111.579 6.39702 109.25 6.39702C106.639 6.39702 104.558 7.70291 103.393 10.1029C102.159 7.63236 100.324 6.39702 97.9248 6.39702C95.8081 6.39702 94.1144 7.42058 92.8443 9.43225V6.67947" fill="#919D9D"/>
<path d="M134.156 18.7419C134.859 18.7419 135.395 18.5846 135.774 18.2609C136.144 17.9372 136.339 17.4839 136.339 16.9012C136.339 16.5497 136.237 16.2445 136.052 15.9855C135.858 15.7265 135.599 15.5323 135.275 15.4213C135.571 15.3011 135.802 15.1161 135.969 14.8571C136.135 14.6073 136.228 14.3114 136.228 13.9599C136.228 13.4234 136.043 12.9979 135.682 12.6649C135.312 12.3412 134.775 12.1747 134.054 12.1747H131.399V18.7419H134.156ZM134.147 15.93C134.48 15.93 134.748 16.0133 134.933 16.1705C135.118 16.3277 135.21 16.5497 135.21 16.8272C135.21 17.4284 134.849 17.7244 134.137 17.7244H132.5V15.93H134.147ZM134.063 13.1922C134.406 13.1922 134.664 13.2754 134.84 13.4234C135.007 13.5714 135.099 13.7841 135.099 14.0524C135.099 14.6258 134.748 14.9033 134.063 14.9033H132.5V13.1922H134.063Z" fill="#17C67E"/>
<path d="M143.118 17.7059H139.622V15.93H142.961V14.8941H139.622V13.2107H143.118V12.1747H138.503V18.7419H143.118V17.7059Z" fill="#17C67E"/>
<path d="M149.517 12.1747H144.587V13.2384H146.492V18.7419H147.611V13.2384H149.517V12.1747Z" fill="#17C67E"/>
<path d="M151.075 18.7419L151.547 17.4747H154.488L154.96 18.7419H156.181L153.628 12.1747H152.435L149.891 18.7419H151.075ZM153.027 13.5621L154.118 16.4572H151.917L153.008 13.5621H153.027Z" fill="#17C67E"/>
<path d="M132.833 7.54995H154.747V5.70005H132.833V7.54995ZM154.747 23.3666H132.833V25.2165H154.747V23.3666ZM132.833 23.3666C128.466 23.3666 124.925 19.826 124.925 15.4583H123.075C123.075 20.8476 127.444 25.2165 132.833 25.2165V23.3666ZM162.656 15.4583C162.656 19.826 159.115 23.3666 154.747 23.3666V25.2165C160.137 25.2165 164.506 20.8476 164.506 15.4583H162.656ZM154.747 7.54995C159.115 7.54995 162.656 11.0906 162.656 15.4583H164.506C164.506 10.069 160.137 5.70005 154.747 5.70005V7.54995ZM132.833 5.70005C127.444 5.70005 123.075 10.069 123.075 15.4583H124.925C124.925 11.0906 128.466 7.54995 132.833 7.54995V5.70005Z" fill="#17C67E"/>
</svg>
