<svg xmlns="http://www.w3.org/2000/svg" width="24" height="24" fill="none" viewBox="0 0 24 24">
    <path fill="#273F3F" fill-rule="evenodd" d="M16 5c0-2.21-1.79-4-4-4S8 2.79 8 5v7c0 2.21 1.79 4 4 4s4-1.79 4-4V5zm-6 0c0-1.105.895-2 2-2s2 .895 2 2v7c0 1.105-.895 2-2 2s-2-.895-2-2V5zm8 7c0-.552.448-1 1-1s1 .448 1 1c0 4.418-3.582 8-8 8s-8-3.582-8-8c0-.552.448-1 1-1s1 .448 1 1c0 3.314 2.686 6 6 6s6-2.686 6-6zm-2 10c0-.552-.448-1-1-1H9c-.552 0-1 .448-1 1s.448 1 1 1h6c.552 0 1-.448 1-1z" clip-rule="evenodd"/>
</svg>
