<svg xmlns="http://www.w3.org/2000/svg" width="24" height="24" fill="none" viewBox="0 0 24 24">
    <path fill="#273F3F" fill-rule="evenodd" d="M18.586 4H15c-.552 0-1-.448-1-1s.448-1 1-1h6c.136 0 .265.027.383.076s.228.121.324.217.168.206.217.324c.049.118.076.247.076.383v6c0 .552-.448 1-1 1s-1-.448-1-1V5.414l-9.293 9.293c-.39.39-1.024.39-1.414 0-.39-.39-.39-1.024 0-1.414L18.586 4zM17 13c0-.552.448-1 1-1s1 .448 1 1v6c0 1.657-1.343 3-3 3H5c-1.657 0-3-1.343-3-3V8c0-1.657 1.343-3 3-3h6c.552 0 1 .448 1 1s-.448 1-1 1H5c-.552 0-1 .448-1 1v11c0 .552.448 1 1 1h11c.552 0 1-.448 1-1v-6z" clip-rule="evenodd"/>
</svg>
