<svg xmlns="http://www.w3.org/2000/svg" width="24" height="24" fill="none" viewBox="0 0 24 24">
    <path fill="#273F3F" fill-rule="evenodd" d="M13.707 1.293C13.52 1.105 13.265 1 13 1H6C4.343 1 3 2.343 3 4v16c0 1.657 1.343 3 3 3h12c1.657 0 3-1.343 3-3V9c0-.265-.105-.52-.293-.707l-7-7zM6 3h6.586L19 9.414V20c0 .552-.448 1-1 1H6c-.552 0-1-.448-1-1V4c0-.552.448-1 1-1z" clip-rule="evenodd"/>
    <path fill="#273F3F" d="M14 8h6c.552 0 1 .45 1 1s-.448 1-1 1h-7c-.552 0-1-.448-1-1V2c0-.552.448-1 1-1s1 .448 1 1v6z"/>
</svg>
