<svg xmlns="http://www.w3.org/2000/svg" width="24" height="24" fill="none" viewBox="0 0 24 24">
    <path fill="#273F3F" d="M18.733 13.343c.39-.39 1.024-.39 1.414 0 .39.39.39 1.024 0 1.414l-5.19 5.19c-2.735 2.735-7.169 2.735-9.904 0-2.735-2.735-2.735-7.17 0-9.904l6.19-6.19c1.954-1.954 5.12-1.954 7.074 0 1.954 1.953 1.954 5.12 0 7.075l-5.2 5.189c-1.172 1.172-3.072 1.172-4.244 0-1.172-1.172-1.172-3.072.001-4.245l4.49-4.48c.39-.39 1.024-.39 1.414.002.39.39.39 1.024-.001 1.414l-4.49 4.479c-.39.391-.39 1.025 0 1.416.391.39 1.025.39 1.417 0l5.2-5.19c1.172-1.173 1.172-3.074 0-4.246-1.173-1.172-3.074-1.172-4.247 0l-6.19 6.19c-1.954 1.954-1.954 5.122 0 7.076 1.954 1.954 5.122 1.954 7.076 0l5.19-5.19z"/>
</svg>
