<svg xmlns="http://www.w3.org/2000/svg" width="24" height="24" fill="none" viewBox="0 0 24 24">
    <path fill="#273F3F" fill-rule="evenodd" d="M19 10.414L8.707 20.707c-.14.14-.318.235-.511.274l-5 1c-.7.14-1.317-.477-1.177-1.177l1-5c.039-.194.134-.372.273-.511L13.585 5 15 3.586l.293-.293c1.495-1.495 3.919-1.495 5.414 0 1.495 1.495 1.495 3.919 0 5.414L20.414 9 19 10.414zM17.585 9L7.507 19.079l-3.233.646.647-3.232L15 6.414 17.585 9zM19 7.586l.293-.293c.713-.714.713-1.872 0-2.586-.715-.714-1.872-.714-2.586 0L16.414 5 19 7.586z" clip-rule="evenodd"/>
</svg>
