<svg xmlns="http://www.w3.org/2000/svg" width="24" height="25" fill="none" viewBox="0 0 24 25">
    <path fill="#273F3F" d="M22.5 20.419c.003.704-.29 1.376-.81 1.852-.518.476-1.213.711-1.924.647-3.154-.343-6.185-1.421-8.844-3.145-2.478-1.575-4.579-3.676-6.151-6.15-1.733-2.675-2.811-5.72-3.149-8.897-.063-.7.17-1.392.644-1.91C2.739 2.296 3.408 2 4.11 2h2.996c1.254-.012 2.324.907 2.5 2.154.122.923.348 1.83.672 2.7.344.913.124 1.943-.564 2.64l-.997.997c1.305 2.17 3.123 3.987 5.293 5.292l.999-.999c.694-.686 1.724-.906 2.636-.563.872.326 1.778.551 2.705.674 1.255.177 2.179 1.264 2.15 2.53v2.993z"/>
</svg>
