<svg xmlns="http://www.w3.org/2000/svg" width="24" height="24" fill="none" viewBox="0 0 24 24">
    <path fill="#273F3F" fill-rule="evenodd" d="M22.029 22.139c.622-.571.975-1.378.971-2.223V16.93c.031-1.517-1.076-2.82-2.58-3.031-.894-.118-1.763-.335-2.6-.647-1.094-.411-2.33-.148-3.163.676l-.72.721c-1.845-1.176-3.41-2.741-4.587-4.586l.718-.717c.827-.837 1.09-2.073.678-3.169-.31-.834-.527-1.703-.644-2.589C9.89 2.09 8.606.985 7.1 1H4.11c-.844 0-1.647.355-2.214.977-.568.622-.848 1.454-.773 2.293.347 3.263 1.452 6.383 3.227 9.124 1.61 2.532 3.763 4.686 6.303 6.3 2.72 1.764 5.826 2.869 9.058 3.22.86.078 1.694-.204 2.317-.775zM21 16.895v3.025c0 .286-.117.555-.325.745-.207.19-.485.284-.766.259-2.903-.316-5.71-1.314-8.175-2.913-2.3-1.462-4.244-3.405-5.7-5.697-1.61-2.485-2.609-5.305-2.92-8.24-.024-.264.07-.54.259-.748C3.563 3.118 3.83 3 4.11 3h3c.511-.005.939.363 1.01.86.134 1.026.388 2.042.753 3.02.138.367.05.78-.225 1.057L7.383 9.203c-.318.318-.384.81-.162 1.201 1.513 2.66 3.715 4.863 6.375 6.375.392.223.883.156 1.201-.162l1.27-1.27c.274-.27.686-.358 1.052-.221.98.366 1.996.619 3.03.755.494.07.864.507.852 1.014z" clip-rule="evenodd"/>
</svg>
