<svg xmlns="http://www.w3.org/2000/svg" width="24" height="25" fill="none" viewBox="0 0 24 25">
    <path fill="#273F3F" fill-rule="evenodd" d="M19 2.5H5c-1.657 0-3 1.344-3 3v14c0 1.658 1.343 3 3 3h14c1.657 0 3-1.342 3-3v-14c0-1.656-1.343-3-3-3zm-11.5 7C8.328 9.5 9 8.83 9 8c0-.828-.672-1.5-1.5-1.5S6 7.173 6 8c0 .83.672 1.5 1.5 1.5zm9.852 1.213c-.767-.688-1.93-.68-2.689.017l-3.79 3.484-1.61-.96c-.751-.448-1.707-.355-2.359.23L4 16.086V19.5c0 .552.448 1 1 1h14c.552 0 1-.448 1-1v-6.414l-2.648-2.374z" clip-rule="evenodd"/>
</svg>
