<svg xmlns="http://www.w3.org/2000/svg" width="24" height="24" fill="none" viewBox="0 0 24 24">
    <path fill="#273F3F" fill-rule="evenodd" d="M3.857 11.433l2.532.562-2.532.563c-.826.183-1.243.348-1.665.659-.4.295-.708.678-.91 1.134-.211.478-.282.922-.282 1.767v3.847c0 .474.112.942.328 1.364.753 1.476 2.56 2.061 4.036 1.308l15.603-7.966c.563-.287 1.02-.744 1.307-1.307.754-1.475.17-3.282-1.306-4.036L5.365 1.355c-.423-.216-.89-.328-1.365-.328-1.657 0-3 1.343-3 3v3.846c0 .845.07 1.289.282 1.767.202.456.51.839.91 1.134.422.31.84.476 1.665.66zM4 3.027c.158 0 .314.037.455.11l15.603 7.972c.492.251.687.853.435 1.345-.095.188-.248.34-.435.436L4.455 20.856c-.492.25-1.095.056-1.346-.436-.072-.141-.109-.297-.109-.455v-3.847c0-.59.029-.772.112-.958.06-.138.146-.244.266-.333.165-.121.336-.189.912-.317l6.93-1.538c1.044-.232 1.044-1.721 0-1.953L4.29 9.481c-.576-.128-.747-.196-.912-.317-.12-.089-.206-.195-.266-.333C3.029 8.645 3 8.463 3 7.873V4.027c0-.552.448-1 1-1z" clip-rule="evenodd"/>
</svg>
