<svg xmlns="http://www.w3.org/2000/svg" width="24" height="25" fill="none" viewBox="0 0 24 25">
    <path fill="#273F3F" fill-rule="evenodd" d="M1 12.5c0 6.076 4.925 11 11 11s11-4.924 11-11c0-6.074-4.925-11-11-11S1 6.427 1 12.5zm10.938-3.412c-1.026 0-1.442.716-1.442 1.288 0 .497-.403.9-.9.9s-.9-.403-.9-.9c0-1.4 1.064-3.088 3.242-3.088.856 0 1.689.26 2.323.796.65.548 1.042 1.347 1.042 2.292 0 1.546-.936 2.313-1.576 2.818-.697.548-.89.725-.89 1.126 0 .497-.402.9-.9.9-.496 0-.9-.403-.9-.9 0-1.321.904-2.02 1.46-2.45l.001-.001.115-.09c.592-.466.89-.761.89-1.403 0-.416-.16-.711-.403-.917-.258-.217-.658-.37-1.162-.37zM12 18.313c.544 0 .986-.441.986-.986 0-.544-.442-.986-.986-.986-.545 0-.986.442-.986.986 0 .545.441.986.986.986z" clip-rule="evenodd"/>
</svg>
