<svg xmlns="http://www.w3.org/2000/svg" width="24" height="24" fill="none" viewBox="0 0 24 24">
    <mask id="nbpzhalcva" fill="#fff">
        <path fill-rule="evenodd" d="M12 23c6.075 0 11-4.925 11-11S18.075 1 12 1 1 5.925 1 12s4.925 11 11 11zm6.384-13.616c.488-.488.488-1.28 0-1.768s-1.28-.488-1.768 0L9.854 14.38 8.05 12.575c-.488-.488-1.28-.488-1.768 0s-.488 1.28 0 1.768L8.97 17.03c.488.488 1.28.488 1.767 0l7.647-7.646z" clip-rule="evenodd"/>
    </mask>
    <path fill="#000" fill-rule="evenodd" d="M12 23c6.075 0 11-4.925 11-11S18.075 1 12 1 1 5.925 1 12s4.925 11 11 11zm6.384-13.616c.488-.488.488-1.28 0-1.768s-1.28-.488-1.768 0L9.854 14.38 8.05 12.575c-.488-.488-1.28-.488-1.768 0s-.488 1.28 0 1.768L8.97 17.03c.488.488 1.28.488 1.767 0l7.647-7.646z" clip-rule="evenodd"/>
    <path fill="#000" d="M16.616 7.616l-1.414-1.414 1.414 1.414zM9.854 14.38l-1.415 1.414 1.415 1.414 1.414-1.414-1.414-1.414zm-3.572-1.804l1.414 1.414-1.414-1.414zm0 1.768l1.414-1.414-1.414 1.414zM8.97 17.03l-1.415 1.415L8.97 17.03zM21 12c0 4.97-4.03 9-9 9v4c7.18 0 13-5.82 13-13h-4zm-9-9c4.97 0 9 4.03 9 9h4c0-7.18-5.82-13-13-13v4zm-9 9c0-4.97 4.03-9 9-9v-4C4.82-1-1 4.82-1 12h4zm9 9c-4.97 0-9-4.03-9-9h-4c0 7.18 5.82 13 13 13v-4zm4.97-11.97c-.293-.293-.293-.767 0-1.06l2.828 2.828c1.27-1.27 1.27-3.327 0-4.596L16.97 9.03zm1.06 0c-.293.293-.767.293-1.06 0l2.828-2.828c-1.27-1.27-3.327-1.27-4.596 0L18.03 9.03zm-6.762 6.763L18.03 9.03l-2.828-2.828-6.763 6.762 2.829 2.829zm-4.632-1.804l1.803 1.804 2.829-2.829-1.804-1.803-2.828 2.828zm1.06 0c-.293.293-.767.293-1.06 0l2.828-2.828c-1.269-1.27-3.327-1.27-4.596 0l2.828 2.828zm0-1.06c.293.293.293.767 0 1.06l-2.828-2.828c-1.27 1.269-1.27 3.327 0 4.596l2.828-2.828zm2.688 2.687L7.696 12.93l-2.828 2.828 2.687 2.688 2.829-2.829zm-1.06 0c.292-.293.767-.293 1.06 0l-2.829 2.829c1.27 1.269 3.327 1.269 4.597 0l-2.829-2.829zM16.97 7.97l-7.647 7.646 2.829 2.829 7.646-7.647L16.97 7.97z" mask="url(#nbpzhalcva)"/>
</svg>
