<svg xmlns="http://www.w3.org/2000/svg" width="24" height="24" fill="none" viewBox="0 0 24 24">
    <path fill="#273F3F" fill-rule="evenodd" d="M14.728 2.315C14.108 1.655 13 2.095 13 3v4.033C6.107 7.486 1 12.605 1 19.06c0 .842.977 1.307 1.63.776 2.912-2.364 6.358-3.635 10.37-3.814V20.1c0 .908 1.114 1.346 1.732.681l8-8.6c.359-.385.357-.983-.004-1.366l-8-8.5zM14 9c.552 0 1-.448 1-1V5.522l5.63 5.982L15 17.557V15c0-.552-.448-1-1-1-4.058 0-7.657.984-10.773 2.95C4.235 12.36 8.5 9 14 9z" clip-rule="evenodd"/>
</svg>
