<svg xmlns="http://www.w3.org/2000/svg" width="24" height="24" fill="none" viewBox="0 0 24 24">
    <path fill="#273F3F" fill-rule="evenodd" d="M11.103 1.557l-2.857 5.79-6.39.934c-.82.12-1.147 1.127-.554 1.705l4.624 4.503-1.091 6.362c-.14.817.717 1.44 1.45 1.054L12 18.9l5.715 3.005c.733.386 1.59-.237 1.45-1.054l-1.09-6.362 4.623-4.503c.593-.578.267-1.586-.553-1.705l-6.39-.935-2.858-5.789c-.367-.743-1.427-.743-1.794 0zM9.807 8.703L12 4.259l2.193 4.444c.146.294.427.499.752.546l4.907.718-3.55 3.457c-.235.23-.343.56-.287.885l.837 4.883-4.386-2.307c-.292-.153-.64-.153-.931 0l-4.387 2.307.838-4.883c.055-.324-.052-.656-.288-.885l-3.55-3.457 4.907-.718c.325-.047.606-.252.752-.546z" clip-rule="evenodd"/>
</svg>
