<svg xmlns="http://www.w3.org/2000/svg" width="24" height="24" fill="none" viewBox="0 0 24 24">
    <path fill="#273F3F" d="M22 5.933c-.737.327-1.528.549-2.357.648.847-.51 1.498-1.32 1.802-2.281-.794.473-1.67.815-2.605 1-.749-.8-1.814-1.3-2.995-1.3-2.265 0-4.103 1.846-4.103 4.121 0 .324.036.639.107.938-3.41-.17-6.433-1.813-8.456-4.307-.352.609-.555 1.316-.555 2.071 0 1.43.725 2.692 1.826 3.43-.67-.022-1.303-.208-1.858-.516v.05c0 1.997 1.414 3.663 3.29 4.041-.342.093-.706.144-1.08.144-.265 0-.522-.027-.772-.075.522 1.636 2.038 2.83 3.83 2.862-1.404 1.106-3.17 1.766-5.095 1.766-.332 0-.657-.021-.979-.057 1.814 1.169 3.971 1.852 6.29 1.852 7.546 0 11.672-6.28 11.672-11.725 0-.18-.003-.357-.012-.534.803-.581 1.498-1.307 2.047-2.134l.003.006z"/>
</svg>
