<svg xmlns="http://www.w3.org/2000/svg" width="24" height="24" fill="none" viewBox="0 0 24 24">
    <path fill="#273F3F" fill-rule="evenodd" d="M12 23C5.925 23 1 18.075 1 12S5.925 1 12 1s11 4.925 11 11-4.925 11-11 11zm-3.345-2.642c-2.057-.825-3.74-2.386-4.72-4.358h3.378c.279 1.695.736 3.19 1.342 4.358zm6.69 0c2.057-.825 3.74-2.386 4.72-4.358h-3.378c-.279 1.695-.736 3.19-1.342 4.358zM14.647 16c-.548 2.977-1.645 5-2.647 5-1.002 0-2.1-2.023-2.647-5h5.294zm2.278-2h3.852c.146-.643.223-1.313.223-2s-.077-1.357-.223-2h-3.852c.05.65.075 1.318.075 2 0 .682-.025 1.35-.075 2zm-2.01-4c.055.642.085 1.311.085 2 0 .689-.03 1.358-.085 2h-5.83C9.03 13.358 9 12.689 9 12c0-.689.03-1.358.085-2h5.83zm1.772-2h3.377c-.98-1.972-2.662-3.534-4.719-4.358.606 1.169 1.063 2.663 1.342 4.358zM8.655 3.642C6.598 4.466 4.915 6.028 3.935 8h3.378c.279-1.695.736-3.19 1.342-4.358zM9.353 8C9.9 5.023 10.998 3 12 3c1.002 0 2.1 2.023 2.647 5H9.353zm-2.278 2H3.223C3.077 10.643 3 11.313 3 12s.077 1.357.223 2h3.852C7.025 13.35 7 12.682 7 12c0-.682.025-1.35.075-2z" clip-rule="evenodd"/>
</svg>
