<svg xmlns="http://www.w3.org/2000/svg" width="24" height="24" fill="none" viewBox="0 0 24 24">
    <path fill="#273F3F" fill-rule="evenodd" d="M3.392 4.466C5.117 4 11.993 4 11.993 4s6.89 0 8.615.494c.938.254 1.685 1.031 1.93 2.005.476 1.794.462 5.522.462 5.522s0 3.714-.462 5.494c-.245.988-.992 1.75-1.93 2.019-1.725.466-8.615.466-8.615.466s-6.862 0-8.601-.48c-.938-.268-1.685-1.045-1.944-2.02C1 15.735 1 12.007 1 12.007s0-3.714.448-5.508c.259-.974 1.02-1.765 1.944-2.033zM10 16l6-3.992L10 8v8z" clip-rule="evenodd"/>
</svg>
